<svg width="155" height="105" xmlns="http://www.w3.org/2000/svg" version="1.0" preserveAspectRatio="xMidYMid meet" color-interpolation-filters="sRGB">
 <g>
  <title>Layer 1</title>
  <rect x="-18" y="4" width="165" height="122" fill="#eeebe0" fill-opacity="0" class="background" id="svg_5" stroke="null"/>
  <g class="iconmbgsvg" id="svg_7">
   <g fill="#000000" hollow-target="textNormalTran" id="svg_8">
    <g id="svg_9">
     <g id="svg_10">
      <rect fill="#000000" fill-opacity="0" stroke-width="2" x="6.83" y="0.79429" width="100" height="100" class="image-rect" id="svg_11"/>
      <svg x="2.83" y="0.79429" width="100" height="100" filtersec="colorsb5104421240" class="image-svg-svg primary" id="svg_1">
       <svg viewBox="0 0 99.97024536132812 99.97000122070312" id="svg_14" xmlns="http://www.w3.org/2000/svg">
        <defs>
         <linearGradient x1="0%" y1="50%" y2="50%" id="svg_25">
          <stop stop-color="#1d0a5b" offset="0%"/>
          <stop stop-color="#cd8c2a" offset="100%"/>
         </linearGradient>
        </defs>
        <path d="m49.75,0l50.22,50.22c0.001,-0.359 -0.001,-0.718 -0.007,-1.077l-49.137,-49.136c-0.28,-0.005 -0.56,-0.007 -0.842,-0.007l-0.235,0l0.001,0zm-3.656,0.15l53.725,53.726c0.028,-0.355 0.051,-0.711 0.071,-1.067l-52.73,-52.73c-0.355,0.02 -0.71,0.044 -1.066,0.072l0,-0.001zm53.739,46.128c-0.027,-0.365 -0.058,-0.73 -0.093,-1.095l-44.953,-44.953c-0.365,-0.035 -0.73,-0.066 -1.095,-0.093l46.141,46.141zm-57.161,-45.743l56.763,56.763c0.052,-0.354 0.1,-0.708 0.145,-1.062l-55.846,-55.846c-0.355,0.044 -0.709,0.093 -1.062,0.145zm56.654,41.43a50.234,50.234 0 0 0 -0.196,-1.13l-39.995,-39.995a50.48,50.48 0 0 0 -1.13,-0.196l41.321,41.321zm-59.878,-40.848l59.405,59.404c0.075,-0.352 0.147,-0.705 0.215,-1.059l-58.56,-58.56c-0.354,0.067 -0.707,0.14 -1.06,0.215zm-3.05,0.756l61.7,61.699a49.8,49.8 0 0 0 0.284,-1.058l-60.926,-60.927c-0.354,0.092 -0.706,0.187 -1.058,0.286zm61.9,35.258a50.063,50.063 0 0 0 -0.335,-1.2l-33.923,-33.925c-0.4,-0.117 -0.8,-0.228 -1.201,-0.335l35.458,35.459l0.001,0.001zm-64.796,-34.348l63.683,63.684c0.123,-0.351 0.241,-0.703 0.355,-1.056l-62.98,-62.983c-0.353,0.115 -0.705,0.233 -1.056,0.355l-0.002,0zm-2.754,1.052l65.385,65.386c0.146,-0.35 0.288,-0.702 0.425,-1.054l-64.755,-64.757c-0.353,0.138 -0.704,0.28 -1.054,0.425l-0.001,0zm65.67,27.612a49.135,49.135 0 0 0 -0.569,-1.367l-25.959,-25.96c-0.453,-0.197 -0.909,-0.387 -1.367,-0.57l27.897,27.898l-0.002,-0.001zm-68.292,-26.43l66.826,66.827c0.17,-0.349 0.335,-0.7 0.496,-1.051l-66.271,-66.271c-0.352,0.16 -0.703,0.326 -1.051,0.496l0,-0.001zm-2.501,1.306l68.022,68.022c0.194,-0.347 0.383,-0.696 0.568,-1.047l-67.543,-67.543c-0.351,0.185 -0.7,0.374 -1.047,0.568zm-2.385,1.42l68.986,68.987c0.219,-0.345 0.433,-0.692 0.642,-1.041l-68.587,-68.589c-0.35,0.21 -0.696,0.424 -1.041,0.643zm69.332,16.051a49.838,49.838 0 0 0 -1.364,-2.094l-12.938,-12.938a49.854,49.854 0 0 0 -2.094,-1.365l16.396,16.397zm-71.606,-14.518l69.728,69.727c0.244,-0.342 0.483,-0.686 0.718,-1.032l-69.412,-69.414c-0.347,0.235 -0.69,0.475 -1.033,0.719l-0.001,0zm-2.166,1.64l70.254,70.254c0.27,-0.338 0.537,-0.68 0.797,-1.023l-70.029,-70.027c-0.343,0.26 -0.684,0.526 -1.022,0.796zm-2.063,1.743l70.574,70.574c0.298,-0.334 0.59,-0.67 0.877,-1.01l-70.44,-70.443c-0.34,0.287 -0.677,0.58 -1.01,0.878l-0.001,0.001zm-1.96,1.845l70.689,70.689c0.325,-0.328 0.646,-0.66 0.96,-0.995l-70.655,-70.655a50.94,50.94 0 0 0 -0.994,0.961zm-1.86,1.946l70.603,70.603c0.352,-0.32 0.701,-0.645 1.047,-0.977l-70.674,-70.673a51.06,51.06 0 0 0 -0.976,1.047zm-1.758,2.048l70.313,70.312c0.383,-0.311 0.762,-0.63 1.138,-0.954l-70.498,-70.496c-0.324,0.376 -0.642,0.755 -0.953,1.138zm-1.655,2.151l69.816,69.816c0.415,-0.301 0.827,-0.61 1.234,-0.926l-70.124,-70.124c-0.316,0.408 -0.624,0.82 -0.926,1.234zm-1.547,2.259l69.105,69.105c0.449,-0.29 0.894,-0.587 1.335,-0.893l-69.547,-69.547a49.5,49.5 0 0 0 -0.893,1.335zm-1.437,2.368l68.174,68.174c0.484,-0.276 0.965,-0.56 1.442,-0.853l-68.763,-68.763a49.52,49.52 0 0 0 -0.853,1.442zm-1.323,2.484l67.013,67.012a49.41,49.41 0 0 0 1.557,-0.807l-67.762,-67.762a49.555,49.555 0 0 0 -0.808,1.557zm-1.2,2.605l65.608,65.608c0.563,-0.24 1.123,-0.491 1.679,-0.753l-66.534,-66.534a49.815,49.815 0 0 0 -0.753,1.68l0,-0.001zm-1.071,2.735l63.944,63.944a49.596,49.596 0 0 0 1.811,-0.689l-65.067,-65.067c-0.241,0.6 -0.471,1.204 -0.688,1.812zm-0.932,2.874l62.002,62.002a49.85,49.85 0 0 0 1.955,-0.613l-63.344,-63.345c-0.218,0.649 -0.422,1.3 -0.613,1.956zm-0.779,3.027l59.754,59.754a50.023,50.023 0 0 0 2.113,-0.523l-61.345,-61.345c-0.19,0.702 -0.363,1.406 -0.522,2.114zm-0.609,3.197l57.166,57.165c0.765,-0.12 1.529,-0.258 2.29,-0.414l-59.042,-59.041c-0.155,0.76 -0.293,1.524 -0.414,2.29zm-0.414,3.392l54.188,54.187a50.294,50.294 0 0 0 2.49,-0.28l-56.396,-56.399a50.298,50.298 0 0 0 -0.28,2.49l-0.002,0.002zm-0.186,3.62l50.754,50.753a50.33,50.33 0 0 0 2.725,-0.116l-53.363,-53.362a50.377,50.377 0 0 0 -0.116,2.724l0,0.001zm0.09,3.896l46.767,46.767a50.3,50.3 0 0 0 3.006,0.097l-49.869,-49.87c0.002,1.003 0.035,2.005 0.097,3.006l-0.001,0zm0.448,4.253l42.066,42.067c1.116,0.166 2.237,0.293 3.36,0.383l-45.81,-45.809c0.09,1.123 0.217,2.244 0.383,3.36l0.001,-0.001zm0.94,4.746l36.38,36.381c1.273,0.317 2.555,0.582 3.843,0.798l-41.02,-41.022c0.214,1.29 0.48,2.571 0.797,3.843zm1.722,5.528l29.131,29.131a49.806,49.806 0 0 0 4.592,1.48l-35.203,-35.204c0.418,1.55 0.91,3.082 1.48,4.593zm3.391,7.197l18.543,18.542a49.6,49.6 0 0 0 6.174,2.993l-27.71,-27.709a49.619,49.619 0 0 0 2.993,6.174zm8.043,10.5a50.122,50.122 0 0 0 9.124,7.224l-16.348,-16.348a50.124,50.124 0 0 0 7.224,9.124z" fill="url(#svg_25)" fill-rule="evenodd" id="svg_24"/>
       </svg>
      </svg>
      <!---->
     </g>
    </g>
    <g id="svg_15">
     <g data-gra="path-name" class="tp-name" id="svg_16">
      <g transform="translate(97.83 74.7943) scale(1 1)" id="svg_17">
       <g id="svg_18">
        <path d="m-35.43,-36.05143l0,0q3.4,1.46 3.4,3.63l0,0l0,0.29q0,2.29 -1.35,7.85l0,0l0,0.41l0.53,0l8.26,-1.93q3.05,1 4.86,3.92l0,0l0,0.59q0,0.24 -4.45,0.94l0,0q-10.61,2.69 -11.37,3.51l0,0q-0.53,0.65 -1.64,3.64l0,0q4.51,0.47 16.52,10.13l0,0q3.46,3.17 9.61,4.46l0,0q0.53,0 8.79,3.92l0,0q1.18,0.59 1.35,0.59l0,0l0,0.41l-0.82,0q-0.35,0 -2.17,1.17l0,0q-1.7,0.18 -1.87,0.29l0,0q-7.27,0 -20.45,-12.18l0,0q-9.08,-6.92 -11.6,-7.45l0,0q-5.34,11.43 -14.53,15.06l0,0q-1.7,0.24 -2.41,0.24l0,0q-2.57,-0.12 -2.57,-0.53l0,0l0,-0.12q3.45,-0.41 8.9,-6.27l0,0q3.93,-5.62 5.33,-8.08l0,0l1.59,-2.99q-0.12,-0.24 -0.12,-0.53l0,0l-0.12,0q-0.53,0 -6.91,2.17l0,0l-0.53,0q-4.51,-1.82 -6.68,-5.57l0,0l0,-0.11q0.29,-0.12 0.41,-0.12l0,0q1.52,0.94 1.93,0.94l0,0q1.12,0 12.95,-3.81l0,0q2.05,0 2.76,-3.22l0,0q0,-0.36 0.11,-0.59l0,0q-0.11,-1.76 -0.11,-2.81l0,0l0,-0.71q0,-3.92 2.4,-7.14l0,0zm-3.4,30.82l0,0l0.41,0q1.7,0.87 2.99,5.03l0,0q0.29,1.29 0.29,2l0,0q0,1.52 -2.28,1.52l0,0q-0.71,0 -2.17,-4.63l0,0l0,-2.28q0,-1.18 0.76,-1.64l0,0zm78.63,-2.35l0,0q-0.35,-0.06 -0.64,-0.17l0,0q0.12,-2.29 1.52,-5.16l0,0q1.47,-2.93 2.99,-3.81l0,0l0.29,-0.12l0.24,-0.05q0.41,-0.06 0.64,-0.18l0,0l0.3,-0.23l0.23,-0.36q0.29,-0.29 0.64,-0.41l0,0l0.3,-0.06l0.23,0q0.29,0 0.41,-0.11l0,0q0.35,0.06 0.88,0.35l0,0q0,4.1 -2.64,6.5l0,0q-0.87,0.76 -2.57,1.88l0,0l-1.47,0.94q-0.76,0.58 -1.35,0.99l0,0zm-20.45,1l0,0q-0.41,0.29 -0.87,0.94l0,0l-0.41,0.41l-0.3,0.46q-0.35,0.53 -1.17,1.06l0,0l-0.7,0.53l-0.59,0.41l-0.94,1.17l-0.88,0.7l-0.93,0.59q-1.06,0.88 -1.64,1.58l0,0l-0.3,0q0.06,-1.17 1.41,-2.7l0,0l0.64,-0.52l0.47,-0.65q0.71,-0.58 1,-0.99l0,0q0.88,-1.18 2.05,-2.58l0,0l2.11,-2.52q2.81,-3.17 4.16,-5.04l0,0l0.35,0.18q0.06,0.58 0.06,1.17l0,0q0,2.17 -0.76,3.28l0,0q-0.29,0.53 -2.76,2.52l0,0zm28.6,-1.99l0,0q-0.35,-0.12 -0.82,-0.12l0,0l-0.94,0q-0.64,0 -0.82,-0.24l0,0q-0.12,-0.05 -0.18,-0.17l0,0q0.59,-0.47 1.41,-1.23l0,0l0.64,-0.76l0.59,-0.77q1.64,-1.99 2.7,-2.69l0,0l0.99,-0.18q0.35,-0.17 0.82,-0.7l0,0l0.47,-0.47l0.35,-0.41q0,-2.28 -2.34,-4.63l0,0q-2.34,-2.34 -4.63,-2.34l0,0q-0.59,0.53 -1.23,1.11l0,0l-1.23,1.12q-1.7,1.46 -2.4,2.28l0,0q-0.94,1.06 -2,3.16l0,0l-0.82,1.65l-0.87,1.69q-0.24,-0.05 -0.36,-0.17l0,0q-0.23,-0.29 -0.23,-1.52l0,0l0,-0.94l0.06,-0.82l0,-0.88q0,-1 -0.12,-1.64l0,0l-0.06,-0.06l0,-0.12l-0.06,-0.29q-0.05,-0.24 -0.05,-0.41l0,0l0,-0.12l0.05,-0.12l0.18,-0.11q0.12,-0.18 0.12,-0.3l0,0q0,-0.11 -0.06,-0.17l0,0q-0.35,-0.76 -0.41,-2.7l0,0l-0.12,-1.46q-0.06,-0.88 -0.29,-1.53l0,0q-0.06,-0.29 -0.41,-0.82l0,0l-0.24,-0.41l-0.23,-0.41q-0.18,-0.11 -0.29,-0.17l0,0q-1.41,0.29 -2.17,2.93l0,0q-0.18,0.82 -0.41,2.22l0,0l-0.24,1.06q-0.06,0.64 -0.17,0.94l0,0q-0.06,0.35 -0.06,0.82l0,0l0.12,0.64l0,0.35q0,0.65 -0.3,1l0,0q-0.06,0.76 -1.81,2.11l0,0l-0.76,0.53l-0.65,0.46q-0.76,0.53 -1,0.83l0,0l-0.41,0q0.06,-1.35 0.47,-3.29l0,0q0.35,-2.28 0.94,-3.1l0,0q0.29,-0.41 1.17,-1.06l0,0l0.65,-0.46q0.47,-0.24 0.64,-0.42l0,0q-0.06,-1.81 -1.87,-2.75l0,0l-0.65,-0.41l-0.76,-0.29q-0.88,-0.53 -1.17,-1.12l0,0q-0.29,-0.41 -0.53,-1.34l0,0l-0.12,-0.76q-0.11,-0.41 -0.29,-0.71l0,0q-0.12,-0.23 -0.47,-0.58l0,0l-0.41,-0.36l-0.23,-0.23l-0.65,0q-0.11,0.88 -0.52,3.52l0,0q-0.47,2.75 -0.65,2.98l0,0q-0.41,0.82 -2.05,1.47l0,0l-0.7,0.29l-0.71,0.29q-0.82,0.3 -1.28,0.42l0,0l-1.76,0.93l-1.88,0.94q-2.28,1.11 -3.75,1.76l0,0q-4.51,2.05 -8.08,2.52l0,0l0,0.88l0.7,0.76l0.7,0.76q0.88,0.82 1.76,1.17l0,0q0.53,0.18 1.17,0.18l0,0q0.76,0 1.64,-0.24l0,0q0.65,-0.17 1.29,-0.47l0,0l0.65,-0.23l0.41,-0.23q0.47,-0.18 1.34,-0.53l0,0l0.82,-0.24l0.71,-0.23l0.58,0q1.06,-0.59 2.93,-1.41l0,0l1.53,-0.58l1.46,-0.76q0.06,0.23 0.06,0.41l0,0q0,0.17 -0.06,0.35l0,0q-0.35,0.88 -1.76,2.81l0,0q-0.46,0.59 -1.11,1.46l0,0l-0.59,0.65q-0.23,0.41 -0.35,0.53l0,0l-0.88,0.52q-1.23,1.88 -3.1,4.11l0,0l-1.7,1.81l-1.64,1.94l-0.53,0.35l-0.47,0.41q-0.64,0.47 -0.93,0.7l0,0q-0.53,0.76 -1.47,2.34l0,0l-0.7,1.23q-0.41,0.65 -0.82,1.12l0,0q0.06,1.29 1.05,2.11l0,0l0.41,0.29l0.47,0.35q0.65,0.29 0.94,0.59l0,0q2.34,-0.12 6.03,-3.64l0,0q1.23,-1.11 2.87,-2.92l0,0l0.59,-0.59l0.59,-0.7q0.58,-0.59 0.88,-0.94l0,0q0.41,-0.41 0.93,-0.82l0,0l1,-0.82q1.17,-0.94 1.7,-1.7l0,0q0.53,0 0.94,0.17l0,0q-0.06,0.36 -0.18,1.41l0,0l-0.06,0.88l-0.06,6.74l0,0.58q0,1.47 0.47,2.05l0,0l0,0.24q0,2.4 2.11,2.81l0,0q0.12,0.06 0.41,0.12l0,0q0.47,-1.41 0.7,-4.22l0,0q0.3,-8.26 0.3,-10.43l0,0q0,-0.12 -0.06,-0.82l0,0l0,-1.93q0,-1.06 0.23,-1.64l0,0q0.41,-1.41 2.46,-2.99l0,0l0.82,-0.65l0.71,-0.64q0.88,-0.7 1.29,-1.41l0,0l0.35,0l0,0.65q0,2.81 0.47,4.86l0,0q0.7,2.99 2.22,4.22l0,0l0.71,0.47l0.76,0.47q1.05,0.64 1.58,0.99l0,0l0.59,0q0.05,-0.29 0.05,-0.7l0,0l0,-1l-0.05,-0.82q0.7,0.12 2.05,0.94l0,0l1.17,0.47q0.58,0.35 1.17,0.53l0,0q0.76,0.17 1.47,0.17l0,0q1.75,0 3.51,-0.88l0,0q0.76,-0.29 1.99,-1.17l0,0l0.94,-0.47l0.88,-0.58q0.23,-0.06 0.47,-0.18l0,0l0.35,-0.12q0.41,-0.11 0.7,-0.29l0,0q0.06,-0.12 0.18,-0.41l0,0q-0.94,-0.41 -2.58,-0.76l0,0l-1.41,-0.41l-1.4,-0.29zm-31.23,-19.87l0,0q0.64,-0.11 1.81,-0.11l0,0l0.82,0l0.59,0.05l0.59,0q0.64,0 0.99,-0.05l0,0q0.47,-0.12 1.06,-0.18l0,0l1.11,-0.06q1.35,-0.17 2.11,-0.47l0,0q0.29,-0.12 0.82,-0.29l0,0l0.94,-0.41q1.11,-0.59 1.64,-0.82l0,0q0.29,-0.12 0.47,-0.12l0,0l0.35,0q0.29,0 0.64,-0.17l0,0q0.12,-0.18 0.41,-0.41l0,0l0.35,-0.41q-0.05,-1.88 -1.93,-3.23l0,0q-1.76,-1.17 -3.87,-1.29l0,0q-0.29,0.24 -1.11,0.24l0,0l-0.53,0.06l-0.7,0.11q-0.35,0.24 -1.11,0.47l0,0l-1.23,0.41q-1.41,0.53 -2.17,0.59l0,0q-0.53,0.41 -1.17,1.23l0,0l-0.47,0.59l-0.59,0.64l-0.58,0.35l0,0.47q-0.3,0.41 -1.06,0.94l0,0l-0.64,0.47l-0.47,0.46l-0.41,0.36l-0.3,0.52q-0.41,0.47 -0.87,0.65l0,0l0.11,0.41q0.94,-0.18 2.23,-0.53l0,0l1.11,-0.23l1.06,-0.24z" id="svg_19"/>
       </g>
       <!---->
       <!---->
       <!---->
       <!---->
       <!---->
       <!---->
       <!---->
      </g>
     </g>
     <g data-gra="path-slogan" class="tp-slogan" fill="#000000" transform="matrix(1 0 0 1 44.804 52.88)" id="svg_20">
      <!---->
      <!---->
      <g transform="translate(97.83 74.7943) scale(1 1)" id="svg_21">
       <g transform="translate(33.66 37.5886) scale(1 1)" id="svg_22">
        <path d="m-85.90637,-64.20382l0,0q0.64,0.05 2.29,0q1.65,-0.05 2.01,-0.13l0,0q0.42,-0.11 0.54,-0.39q0.12,-0.29 -0.18,-0.47l0,0q-0.19,-0.11 -0.23,-0.33q-0.04,-0.23 -0.06,-1.31l0,0q0,-0.05 -0.01,-0.08q-0.01,-0.03 -0.03,-0.04q-0.02,0 -0.05,0.02l0,0q-0.05,0.05 -0.14,0.44l0,0q-0.21,0.84 -0.31,0.99l0,0q-0.16,0.27 -0.66,0.31l0,0q-0.22,0.02 -1.39,0.02l0,0q-1.31,0 -1.55,-0.03q-0.23,-0.03 -0.33,-0.25l0,0q-0.03,-0.07 -0.04,-2.15q-0.01,-2.07 0.02,-2.22l0,0q0.05,-0.23 0.51,-0.41q0.46,-0.18 0.57,-0.02l0,0q0.06,0.07 0.05,1.2q0,1.13 -0.07,2.33l0,0q-0.03,0.62 0.06,0.74q0.08,0.12 0.47,0.02l0,0q0.38,-0.11 0.46,-0.25q0.09,-0.13 0.09,-0.6l0,0q-0.01,-0.65 0.08,-0.68l0,0q0.06,-0.02 0.22,0.06l0,0q0.33,0.21 0.33,0.65l0,0q0,0.16 0.08,0.19q0.08,0.02 0.34,-0.03l0,0q0.45,-0.11 0.67,-0.42q0.21,-0.32 0.31,-1.04q0.09,-0.71 0.13,-2.21l0,0q0.01,-0.55 0.05,-0.71q0.04,-0.15 0.17,-0.2l0,0q0.34,-0.1 -0.17,-0.58l0,0q-0.11,-0.09 -0.25,-0.21l0,0q-0.23,-0.21 -0.3,-0.2q-0.06,0.01 -0.28,0.25l0,0q-0.2,0.25 -0.31,0.32q-0.11,0.08 -0.42,0.2l0,0q-0.5,0.2 -0.59,0.17l0,0q-0.13,-0.03 -0.13,-0.55l0,0q0,-0.01 0,-0.48l0,0q0,-0.74 0.02,-0.89q0.03,-0.15 0.14,-0.27l0,0q0.15,-0.14 -0.02,-0.24l0,0q-0.1,-0.05 -0.39,-0.14l0,0q-0.67,-0.21 -0.72,-0.17l0,0q-0.05,0.02 -0.03,0.22l0,0q0.06,0.53 0.07,1.68q0.01,1.14 -0.04,1.23l0,0q-0.08,0.14 -0.49,0.29l0,0q-0.48,0.19 -0.56,0.07q-0.08,-0.12 -0.07,-1.02l0,0q0.01,-0.66 0.04,-0.81q0.02,-0.16 0.14,-0.24l0,0q0.23,-0.14 -0.33,-0.34l0,0q-0.24,-0.08 -0.64,-0.2l0,0q-0.18,-0.04 -0.21,-0.03q-0.03,0.02 -0.01,0.16l0,0q0.06,0.43 0.06,1.65q0,1.22 -0.05,1.29l0,0q-0.09,0.12 -0.72,0.37l0,0q-0.52,0.19 -0.52,0.26l0,0q-0.01,0.03 0.05,0.09l0,0q0.06,0.09 0.13,0.08q0.07,0 0.43,-0.13l0,0q0.34,-0.13 0.43,-0.14q0.09,-0.02 0.15,0.01l0,0q0.07,0.04 0.08,0.32q0.01,0.28 0.02,1.97l0,0q0.01,1.75 0.03,2.05q0.02,0.3 0.1,0.48l0,0q0.18,0.39 0.96,0.48zm2.76,-3.48l0,0q-0.09,0.02 -0.26,0.02l0,0q-0.04,0 -0.11,0l0,0q-0.29,0 -0.35,-0.1l0,0q-0.08,-0.16 -0.09,-1.18l0,0q0,-0.2 0,-0.32l0,0q0,-0.15 0,-0.41l0,0q0,-0.86 0.06,-1.02q0.05,-0.16 0.38,-0.29l0,0q0.1,-0.04 0.18,-0.07l0,0l0.02,-0.01l0.02,-0.01q0.46,-0.17 0.54,-0.12l0,0q0.08,0.09 0.08,0.66l0,0q0,0.06 0,0.11l0,0q-0.02,1.53 -0.11,2.1q-0.09,0.56 -0.36,0.64zm-7.38,2.73l0,0q0.07,0.09 0.2,-0.16l0,0q0.05,-0.1 0.59,-0.49l0,0q0.79,-0.55 1.62,-1.19q0.83,-0.65 0.83,-0.7l0,0q0,-0.03 -0.02,-0.04q-0.02,0 -0.08,0.01q-0.07,0.02 -0.18,0.06q-0.1,0.05 -0.31,0.12l0,0q-0.6,0.26 -0.69,0.26l0,0q-0.16,0 -0.19,-0.37l0,0q-0.01,-0.13 -0.01,-1.24l0,0q0,-0.18 0,-0.45l0,0q-0.01,-0.94 0.08,-1.08l0,0q0.07,-0.11 0.41,-0.11l0,0q0.03,0 0.06,0l0,0q0.14,0 0.22,0l0,0q0.68,0 0.76,-0.1q0.07,-0.11 -0.29,-0.54l0,0q-0.35,-0.41 -0.47,-0.43q-0.11,-0.02 -0.31,0.3l0,0q-0.26,0.46 -0.39,0.32l0,0q-0.05,-0.04 -0.06,-0.21q-0.01,-0.17 -0.01,-0.98l0,0q0,-0.89 0.02,-1.03q0.02,-0.13 0.16,-0.25l0,0q0.16,-0.15 -0.27,-0.3l0,0q-0.23,-0.08 -0.74,-0.21l0,0q-0.19,-0.05 -0.21,-0.02q-0.02,0.03 0.01,0.3l0,0q0.06,0.55 0.09,1.54q0.03,0.98 -0.02,1.11l0,0q-0.09,0.3 -1.05,0.15l0,0q-0.14,-0.02 -0.15,0.02q-0.02,0.03 0.08,0.24q0.09,0.2 0.13,0.21q0.03,0.01 0.26,-0.05l0,0q0.54,-0.14 0.7,0.07l0,0q0.06,0.07 0.06,1.75q0,1.68 -0.06,1.77l0,0q-0.06,0.11 -0.37,0.23q-0.32,0.12 -0.59,0.21q-0.28,0.09 -0.28,0.14l0,0q0,0.03 0.22,0.56q0.22,0.53 0.25,0.58zm13.39,0.66l0,0q0.08,0.15 0.11,0.18q0.02,0.04 0.09,0.05q0.07,0.02 0.18,-0.02l0,0q0.44,-0.08 0.9,-0.09q0.46,-0.01 2.81,-0.02l0,0q2.35,-0.01 2.7,-0.02q0.36,-0.01 0.41,-0.1l0,0q0.06,-0.08 -0.18,-0.35q-0.23,-0.27 -0.57,-0.54l0,0q-0.13,-0.1 -0.17,-0.13q-0.03,-0.02 -0.11,0q-0.07,0.02 -0.12,0.09q-0.04,0.07 -0.18,0.26l0,0q-0.25,0.37 -0.37,0.43q-0.11,0.06 -0.61,0.06l0,0q-0.57,0 -0.64,-0.1q-0.07,-0.11 -0.07,-0.9l0,0q0,-0.7 0.02,-0.79l0,0q0.07,-0.18 0.42,-0.2l0,0q0.06,0 0.88,0l0,0q1.15,0 1.25,-0.09l0,0q0.1,-0.07 -0.22,-0.39l0,0q-0.04,-0.04 -0.1,-0.1l0,0q-0.43,-0.43 -0.57,-0.46q-0.14,-0.03 -0.34,0.28l0,0q-0.24,0.35 -0.33,0.41q-0.09,0.05 -0.46,0.05l0,0q-0.43,0 -0.49,-0.09q-0.06,-0.09 -0.06,-0.76l0,0q0,-0.68 0.07,-0.77q0.07,-0.1 0.6,-0.1l0,0q0.43,0 0.55,0.06q0.12,0.07 0.12,0.28l0,0q0,0.24 0.54,0.06l0,0q0.37,-0.12 0.44,-0.24q0.08,-0.12 0.06,-0.53l0,0q-0.07,-1.52 -0.07,-2.96l0,0q0.01,-0.6 0.04,-0.71q0.02,-0.12 0.13,-0.19l0,0q0.24,-0.15 0.24,-0.22l0,0q0,-0.07 -0.31,-0.35q-0.3,-0.27 -0.53,-0.39l0,0q-0.1,-0.05 -0.17,-0.02q-0.07,0.03 -0.22,0.22l0,0q-0.03,0.02 -0.06,0.06l0,0q-0.15,0.18 -0.32,0.21l0,0q-0.19,0.04 -1.29,0.04l0,0l-0.31,0q-1.37,0 -1.57,-0.03q-0.2,-0.03 -0.68,-0.24l0,0q-0.44,-0.21 -0.47,-0.17l0,0q-0.03,0.01 -0.02,0.21l0,0q0,0.13 -0.01,0.2q-0.01,0.07 -0.03,0.12q-0.02,0.05 -0.07,0.05q-0.04,0 -0.11,-0.04q-0.07,-0.04 -0.16,-0.11q-0.09,-0.08 -0.23,-0.2l0,0q-0.25,-0.21 -0.29,-0.22q-0.05,0 -0.15,0.15l0,0q-0.36,0.48 -0.46,0.53q-0.11,0.06 -0.76,0.06l0,0q-1.1,0 -1.45,-0.07l0,0q-0.07,-0.02 -0.06,0.06l0,0q0,0.06 0.08,0.22l0,0q0.09,0.19 0.13,0.22q0.05,0.03 0.13,-0.01l0,0q0.32,-0.11 0.58,-0.1q0.25,0.01 0.31,0.14l0,0q0.05,0.1 0.04,1.25q0,1.15 -0.06,1.2l0,0q-0.07,0.1 -0.29,0.11q-0.21,0.01 -0.78,-0.05l0,0q-0.12,-0.02 -0.12,0.03q0,0.04 0.09,0.23l0,0q0.08,0.17 0.12,0.21q0.05,0.03 0.13,0l0,0q0.29,-0.11 0.55,-0.1q0.26,0.01 0.32,0.14l0,0q0.05,0.08 0.04,1.42q0,1.34 -0.05,1.43l0,0q-0.04,0.1 -0.21,0.17q-0.17,0.07 -0.79,0.25l0,0q-0.22,0.07 -0.24,0.12l0,0q-0.05,0.1 0.28,0.89l0,0q0.05,0.14 0.07,0.21l0,0q0.04,0.11 0.14,-0.03l0,0q0.18,-0.24 0.65,-0.52l0,0q2.67,-1.59 2.64,-1.73l0,0q-0.01,-0.05 -0.1,-0.03q-0.09,0.02 -0.55,0.17l0,0q-0.6,0.21 -0.69,0.19l0,0q-0.17,-0.03 -0.19,-0.47l0,0q0,-0.09 0,-0.85l0,0q0,-0.13 0,-0.35l0,0q-0.01,-0.76 0.07,-0.89q0.07,-0.12 0.52,-0.12l0,0q0.14,0 0.23,0l0,0q0.6,-0.01 0.66,0.07q0.06,0.09 0.01,0.91l0,0q-0.04,0.59 -0.02,0.62l0,0q0.09,0.24 0.57,0.11q0.48,-0.13 0.52,-0.4l0,0q0.02,-0.19 0.12,-0.24q0.11,-0.04 0.5,-0.04l0,0q0.48,0 0.55,0.1q0.06,0.09 0.08,0.72l0,0q0.01,0.73 -0.09,0.82q-0.1,0.09 -0.89,0.07l0,0q-0.44,0 -1.04,-0.04l0,0q-0.26,-0.03 -0.28,0q-0.01,0.03 0.08,0.24q0.1,0.22 0.14,0.23q0.03,0.02 0.25,-0.01l0,0q0.44,-0.08 1,-0.1q0.57,-0.03 0.65,0.02l0,0q0.12,0.08 0.14,0.19q0.02,0.11 0.02,0.77q0,0.65 -0.02,0.78q-0.02,0.12 -0.13,0.17l0,0q-0.09,0.06 -1.23,0.04q-1.13,-0.01 -1.69,-0.07l0,0q-0.21,-0.02 -0.22,0.01q-0.01,0.03 0.1,0.27zm3.04,-4.53l0,0q-0.18,0.08 -0.59,0.04q-0.4,-0.05 -0.45,-0.16l0,0q-0.04,-0.09 -0.05,-0.8q0,-0.71 0.04,-0.8l0,0q0.06,-0.12 0.5,-0.16q0.44,-0.03 0.59,0.07l0,0q0.16,0.11 0.14,0.92q-0.01,0.8 -0.18,0.89zm2.31,0l0,0q-0.19,0.08 -0.63,0.04q-0.44,-0.04 -0.49,-0.16l0,0q-0.05,-0.09 -0.05,-0.8q-0.01,-0.71 0.04,-0.8l0,0q0.05,-0.12 0.53,-0.16q0.49,-0.03 0.64,0.07l0,0q0.16,0.11 0.14,0.92q-0.01,0.8 -0.18,0.89zm-4.43,-1.24l0,0q-0.02,0.06 -0.05,0.08q-0.03,0.02 -0.08,0q-0.04,-0.02 -0.11,-0.08q-0.07,-0.06 -0.19,-0.19l0,0q-0.31,-0.32 -0.39,-0.34q-0.08,-0.02 -0.24,0.23l0,0q-0.26,0.45 -0.4,0.31l0,0q-0.05,-0.04 -0.06,-1.16q-0.01,-1.11 0.04,-1.2l0,0q0.08,-0.18 0.76,-0.17q0.69,0.01 0.74,0.19l0,0q0.03,0.12 0.02,1.18q-0.01,1.07 -0.04,1.15zm2.12,-0.96l0,0q-0.07,0.03 -0.46,0.03l0,0q-0.48,0 -0.55,-0.1q-0.07,-0.11 -0.07,-0.86q0,-0.75 0.07,-0.85q0.07,-0.09 0.57,-0.08l0,0q0.03,0 0.08,0l0,0q0.39,0.01 0.45,0.09l0,0q0.09,0.11 0.08,0.82l0,0q0,0.06 0,0.1l0,0q-0.02,0.56 -0.04,0.67q-0.02,0.12 -0.13,0.18zm2.31,0l0,0q-0.19,0.08 -0.63,0.04q-0.44,-0.04 -0.49,-0.16l0,0q-0.05,-0.08 -0.05,-0.8q-0.01,-0.72 0.04,-0.79l0,0q0.05,-0.12 0.53,-0.16q0.49,-0.04 0.64,0.06l0,0q0.16,0.11 0.14,0.91q-0.01,0.81 -0.18,0.9z" id="svg_23"/>
       </g>
      </g>
     </g>
    </g>
   </g>
  </g>
 </g>
</svg>