<svg data-v-2cb57da0="" version="1.0" xmlns="http://www.w3.org/2000/svg" xmlns:xlink="http://www.w3.org/1999/xlink" width="100%" height="100%" viewBox="0 0 340.000000 250.000000" preserveAspectRatio="xMidYMid meet" color-interpolation-filters="sRGB" style="margin: auto;"><rect data-v-2cb57da0="" x="0" y="0" width="100%" height="100%" fill="#eeebe0" fill-opacity="0" class="background"></rect> <rect data-v-2cb57da0="" x="0" y="0" width="100%" height="100%" fill="url(#watermark)" fill-opacity="1" class="watermarklayer"></rect> <g data-v-2cb57da0="" class="iconmbgsvg" transform="translate(97.83000183105469,74.7942886352539)"><g fill="#000000" hollow-target="textNormalTran"><g opacity="1" transform="matrix(1,0,0,1,0,0)"><g><rect fill="#000000" fill-opacity="0" stroke-width="2" x="0" y="0" width="100" height="100" class="image-rect"></rect> <svg x="0" y="0" width="100" height="100" filtersec="colorsb5104421240" class="image-svg-svg primary" style="overflow: visible;"><svg viewBox="0 0 99.97024536132812 99.97000122070312" xmlns="http://www.w3.org/2000/svg"><defs><linearGradient x1="0%" y1="50%" y2="50%" id="7e27ef40-dfd8-4f99-ac69-045718019866"><stop stop-color="#1d0a5b" offset="0%"></stop><stop stop-color="#cd8c2a" offset="100%"></stop></linearGradient></defs><path d="M49.75 0l50.22 50.22c.001-.359-.001-.718-.007-1.077L50.826.007c-.28-.005-.56-.007-.842-.007h-.235zm-3.656.15l53.725 53.726c.028-.355.051-.711.071-1.067L47.16.079c-.355.02-.71.044-1.066.072zm53.739 46.128c-.027-.365-.058-.73-.093-1.095L54.787.23c-.365-.035-.73-.066-1.095-.093l46.141 46.141zM42.672.535l56.763 56.763c.052-.354.1-.708.145-1.062L43.734.39c-.355.044-.709.093-1.062.145zm56.654 41.43a50.234 50.234 0 0 0-.196-1.13L59.135.84a50.48 50.48 0 0 0-1.13-.196l41.321 41.321zM39.448 1.117l59.405 59.404c.075-.352.147-.705.215-1.059L40.508.902c-.354.067-.707.14-1.06.215zm-3.05.756l61.7 61.699a49.8 49.8 0 0 0 .284-1.058L37.456 1.587c-.354.092-.706.187-1.058.286zm61.9 35.258a50.063 50.063 0 0 0-.335-1.2L64.04 2.006c-.4-.117-.8-.228-1.201-.335l35.458 35.459zM33.502 2.783l63.683 63.684c.123-.351.241-.703.355-1.056L34.56 2.428c-.353.115-.705.233-1.056.355zm-2.754 1.052l65.385 65.386c.146-.35.288-.702.425-1.054L31.803 3.41c-.353.138-.704.28-1.054.425zm65.67 27.612a49.135 49.135 0 0 0-.569-1.367L69.89 4.12c-.453-.197-.909-.387-1.367-.57L96.42 31.448zM28.126 5.017l66.826 66.827c.17-.349.335-.7.496-1.051L29.177 4.522c-.352.16-.703.326-1.051.496zm-2.501 1.306l68.022 68.022c.194-.347.383-.696.568-1.047L26.672 5.755c-.351.185-.7.374-1.047.568zm-2.385 1.42L92.226 76.73c.219-.345.433-.692.642-1.041L24.281 7.1c-.35.21-.696.424-1.041.643zm69.332 16.051a49.838 49.838 0 0 0-1.364-2.094L78.27 8.762a49.854 49.854 0 0 0-2.094-1.365l16.396 16.397zM20.966 9.276l69.728 69.727c.244-.342.483-.686.718-1.032L22 8.557c-.347.235-.69.475-1.033.719zm-2.166 1.64L89.054 81.17c.27-.338.537-.68.797-1.023L19.822 10.12c-.343.26-.684.526-1.022.796zm-2.063 1.743l70.574 70.574c.298-.334.59-.67.877-1.01L17.748 11.78c-.34.287-.677.58-1.01.878zm-1.96 1.845l70.689 70.689c.325-.328.646-.66.96-.995L15.771 13.543a50.94 50.94 0 0 0-.994.961zm-1.86 1.946L83.52 87.053c.352-.32.701-.645 1.047-.977L13.893 15.403a51.06 51.06 0 0 0-.976 1.047zm-1.758 2.048L81.472 88.81c.383-.311.762-.63 1.138-.954L12.112 17.36c-.324.376-.642.755-.953 1.138zm-1.655 2.151L79.32 90.465c.415-.301.827-.61 1.234-.926L10.43 19.415c-.316.408-.624.82-.926 1.234zm-1.547 2.259l69.105 69.105c.449-.29.894-.587 1.335-.893L8.85 21.573a49.5 49.5 0 0 0-.893 1.335zM6.52 25.276L74.694 93.45c.484-.276.965-.56 1.442-.853L7.373 23.834a49.52 49.52 0 0 0-.853 1.442zM5.197 27.76L72.21 94.772a49.41 49.41 0 0 0 1.557-.807L6.005 26.203a49.555 49.555 0 0 0-.808 1.557zm-1.2 2.605l65.608 65.608c.563-.24 1.123-.491 1.679-.753L4.75 28.686a49.815 49.815 0 0 0-.753 1.68zM2.926 33.1L66.87 97.044a49.596 49.596 0 0 0 1.811-.689L3.614 31.288c-.241.6-.471 1.204-.688 1.812zm-.932 2.874l62.002 62.002a49.85 49.85 0 0 0 1.955-.613L2.607 34.018c-.218.649-.422 1.3-.613 1.956zm-.779 3.027l59.754 59.754a50.023 50.023 0 0 0 2.113-.523L1.737 36.887c-.19.702-.363 1.406-.522 2.114zm-.609 3.197l57.166 57.165c.765-.12 1.529-.258 2.29-.414L1.02 39.908c-.155.76-.293 1.524-.414 2.29zM.192 45.59L54.38 99.777a50.294 50.294 0 0 0 2.49-.28L.474 43.098a50.298 50.298 0 0 0-.28 2.49zm-.186 3.62L50.76 99.963a50.33 50.33 0 0 0 2.725-.116L.122 46.485a50.377 50.377 0 0 0-.116 2.724zm.09 3.896l46.767 46.767a50.3 50.3 0 0 0 3.006.097L0 50.1c.002 1.003.035 2.005.097 3.006zm.448 4.253L42.61 99.426c1.116.166 2.237.293 3.36.383L.16 54c.09 1.123.217 2.244.383 3.36zm.94 4.746l36.38 36.381c1.273.317 2.555.582 3.843.798L.687 58.262c.214 1.29.48 2.571.797 3.843zm1.722 5.528l29.131 29.131a49.806 49.806 0 0 0 4.592 1.48L1.726 63.04c.418 1.55.91 3.082 1.48 4.593zm3.391 7.197L25.14 93.372a49.6 49.6 0 0 0 6.174 2.993L3.604 68.656a49.619 49.619 0 0 0 2.993 6.174zm8.043 10.5a50.122 50.122 0 0 0 9.124 7.224L7.416 76.206a50.124 50.124 0 0 0 7.224 9.124z" fill="url(#7e27ef40-dfd8-4f99-ac69-045718019866)" fill-rule="evenodd"></path></svg></svg> <!----></g></g> <g transform="translate(33.65999984741211,37.58857345581055)"><g data-gra="path-name" fill-rule="" class="tp-name" transform="matrix(1,0,0,1,0,0)" opacity="1"><g transform="scale(1)"><g><path d="M27.54-42.3L27.54-42.3Q30.94-40.84 30.94-38.67L30.94-38.67 30.94-38.38Q30.94-36.09 29.59-30.53L29.59-30.53 29.59-30.12 30.12-30.12 38.38-32.05Q41.43-31.05 43.24-28.13L43.24-28.13 43.24-27.54Q43.24-27.3 38.79-26.6L38.79-26.6Q28.18-23.91 27.42-23.09L27.42-23.09Q26.89-22.44 25.78-19.45L25.78-19.45Q30.29-18.98 42.3-9.32L42.3-9.32Q45.76-6.15 51.91-4.86L51.91-4.86Q52.44-4.86 60.7-0.94L60.7-0.94Q61.88-0.35 62.05-0.35L62.05-0.35 62.05 0.06 61.23 0.06Q60.88 0.06 59.06 1.23L59.06 1.23Q57.36 1.41 57.19 1.52L57.19 1.52Q49.92 1.52 36.74-10.66L36.74-10.66Q27.66-17.58 25.14-18.11L25.14-18.11Q19.8-6.68 10.61-3.05L10.61-3.05Q8.91-2.81 8.2-2.81L8.2-2.81Q5.63-2.93 5.63-3.34L5.63-3.34 5.63-3.46Q9.08-3.87 14.53-9.73L14.53-9.73Q18.46-15.35 19.86-17.81L19.86-17.81 21.45-20.8Q21.33-21.04 21.33-21.33L21.33-21.33 21.21-21.33Q20.68-21.33 14.3-19.16L14.3-19.16 13.77-19.16Q9.26-20.98 7.09-24.73L7.09-24.73 7.09-24.84Q7.38-24.96 7.5-24.96L7.5-24.96Q9.02-24.02 9.43-24.02L9.43-24.02Q10.55-24.02 22.38-27.83L22.38-27.83Q24.43-27.83 25.14-31.05L25.14-31.05Q25.14-31.41 25.25-31.64L25.25-31.64Q25.14-33.4 25.14-34.45L25.14-34.45 25.14-35.16Q25.14-39.08 27.54-42.3L27.54-42.3ZM24.14-11.48L24.14-11.48 24.55-11.48Q26.25-10.61 27.54-6.45L27.54-6.45Q27.83-5.16 27.83-4.45L27.83-4.45Q27.83-2.93 25.55-2.93L25.55-2.93Q24.84-2.93 23.38-7.56L23.38-7.56 23.38-9.84Q23.38-11.02 24.14-11.48L24.14-11.48ZM102.77-13.83L102.77-13.83Q102.42-13.89 102.13-14L102.13-14Q102.25-16.29 103.65-19.16L103.65-19.16Q105.12-22.09 106.64-22.97L106.64-22.97 106.93-23.09 107.17-23.14Q107.58-23.2 107.81-23.32L107.81-23.32 108.11-23.55 108.34-23.91Q108.63-24.2 108.98-24.32L108.98-24.32 109.28-24.38 109.51-24.38Q109.8-24.38 109.92-24.49L109.92-24.49Q110.27-24.43 110.8-24.14L110.8-24.14Q110.8-20.04 108.16-17.64L108.16-17.64Q107.29-16.88 105.59-15.76L105.59-15.76 104.12-14.82Q103.36-14.24 102.77-13.83L102.77-13.83ZM82.32-12.83L82.32-12.83Q81.91-12.54 81.45-11.89L81.45-11.89 81.04-11.48 80.74-11.02Q80.39-10.49 79.57-9.96L79.57-9.96 78.87-9.43 78.28-9.02 77.34-7.85 76.46-7.15 75.53-6.56Q74.47-5.68 73.89-4.98L73.89-4.98 73.59-4.98Q73.65-6.15 75-7.68L75-7.68 75.64-8.2 76.11-8.85Q76.82-9.43 77.11-9.84L77.11-9.84Q77.99-11.02 79.16-12.42L79.16-12.42 81.27-14.94Q84.08-18.11 85.43-19.98L85.43-19.98 85.78-19.8Q85.84-19.22 85.84-18.63L85.84-18.63Q85.84-16.46 85.08-15.35L85.08-15.35Q84.79-14.82 82.32-12.83L82.32-12.83ZM110.92-14.82L110.92-14.82Q110.57-14.94 110.1-14.94L110.1-14.94 109.16-14.94Q108.52-14.94 108.34-15.18L108.34-15.18Q108.22-15.23 108.16-15.35L108.16-15.35Q108.75-15.82 109.57-16.58L109.57-16.58 110.21-17.34 110.8-18.11Q112.44-20.1 113.5-20.8L113.5-20.8 114.49-20.98Q114.84-21.15 115.31-21.68L115.31-21.68 115.78-22.15 116.13-22.56Q116.13-24.84 113.79-27.19L113.79-27.19Q111.45-29.53 109.16-29.53L109.16-29.53Q108.57-29 107.93-28.42L107.93-28.42 106.7-27.3Q105-25.84 104.3-25.02L104.3-25.02Q103.36-23.96 102.3-21.86L102.3-21.86 101.48-20.21 100.61-18.52Q100.37-18.57 100.25-18.69L100.25-18.69Q100.02-18.98 100.02-20.21L100.02-20.21 100.02-21.15 100.08-21.97 100.08-22.85Q100.08-23.85 99.96-24.49L99.96-24.49 99.9-24.55 99.9-24.67 99.84-24.96Q99.79-25.2 99.79-25.37L99.79-25.37 99.79-25.49 99.84-25.61 100.02-25.72Q100.14-25.9 100.14-26.02L100.14-26.02Q100.14-26.13 100.08-26.19L100.08-26.19Q99.73-26.95 99.67-28.89L99.67-28.89 99.55-30.35Q99.49-31.23 99.26-31.88L99.26-31.88Q99.2-32.17 98.85-32.7L98.85-32.7 98.61-33.11 98.38-33.52Q98.2-33.63 98.09-33.69L98.09-33.69Q96.68-33.4 95.92-30.76L95.92-30.76Q95.74-29.94 95.51-28.54L95.51-28.54 95.27-27.48Q95.21-26.84 95.1-26.54L95.1-26.54Q95.04-26.19 95.04-25.72L95.04-25.72 95.16-25.08 95.16-24.73Q95.16-24.08 94.86-23.73L94.86-23.73Q94.8-22.97 93.05-21.62L93.05-21.62 92.29-21.09 91.64-20.63Q90.88-20.1 90.64-19.8L90.64-19.8 90.23-19.8Q90.29-21.15 90.7-23.09L90.7-23.09Q91.05-25.37 91.64-26.19L91.64-26.19Q91.93-26.6 92.81-27.25L92.81-27.25 93.46-27.71Q93.93-27.95 94.1-28.13L94.1-28.13Q94.04-29.94 92.23-30.88L92.23-30.88 91.58-31.29 90.82-31.58Q89.94-32.11 89.65-32.7L89.65-32.7Q89.36-33.11 89.12-34.04L89.12-34.04 89-34.8Q88.89-35.21 88.71-35.51L88.71-35.51Q88.59-35.74 88.24-36.09L88.24-36.09 87.83-36.45 87.6-36.68 86.95-36.68Q86.84-35.8 86.43-33.16L86.43-33.16Q85.96-30.41 85.78-30.18L85.78-30.18Q85.37-29.36 83.73-28.71L83.73-28.71 83.03-28.42 82.32-28.13Q81.5-27.83 81.04-27.71L81.04-27.71 79.28-26.78 77.4-25.84Q75.12-24.73 73.65-24.08L73.65-24.08Q69.14-22.03 65.57-21.56L65.57-21.56 65.57-20.68 66.27-19.92 66.97-19.16Q67.85-18.34 68.73-17.99L68.73-17.99Q69.26-17.81 69.9-17.81L69.9-17.81Q70.66-17.81 71.54-18.05L71.54-18.05Q72.19-18.22 72.83-18.52L72.83-18.52 73.48-18.75 73.89-18.98Q74.36-19.16 75.23-19.51L75.23-19.51 76.05-19.75 76.76-19.98 77.34-19.98Q78.4-20.57 80.27-21.39L80.27-21.39 81.8-21.97 83.26-22.73Q83.32-22.5 83.32-22.32L83.32-22.32Q83.32-22.15 83.26-21.97L83.26-21.97Q82.91-21.09 81.5-19.16L81.5-19.16Q81.04-18.57 80.39-17.7L80.39-17.7 79.8-17.05Q79.57-16.64 79.45-16.52L79.45-16.52 78.57-16Q77.34-14.12 75.47-11.89L75.47-11.89 73.77-10.08 72.13-8.14 71.6-7.79 71.13-7.38Q70.49-6.91 70.2-6.68L70.2-6.68Q69.67-5.92 68.73-4.34L68.73-4.34 68.03-3.11Q67.62-2.46 67.21-1.99L67.21-1.99Q67.27-0.7 68.26 0.12L68.26 0.12 68.67 0.41 69.14 0.76Q69.79 1.05 70.08 1.35L70.08 1.35Q72.42 1.23 76.11-2.29L76.11-2.29Q77.34-3.4 78.98-5.21L78.98-5.21 79.57-5.8 80.16-6.5Q80.74-7.09 81.04-7.44L81.04-7.44Q81.45-7.85 81.97-8.26L81.97-8.26 82.97-9.08Q84.14-10.02 84.67-10.78L84.67-10.78Q85.2-10.78 85.61-10.61L85.61-10.61Q85.55-10.25 85.43-9.2L85.43-9.2 85.37-8.32 85.31-1.58 85.31-1Q85.31 0.47 85.78 1.05L85.78 1.05 85.78 1.29Q85.78 3.69 87.89 4.1L87.89 4.1Q88.01 4.16 88.3 4.22L88.3 4.22Q88.77 2.81 89 0L89 0Q89.3-8.26 89.3-10.43L89.3-10.43Q89.3-10.55 89.24-11.25L89.24-11.25 89.24-13.18Q89.24-14.24 89.47-14.82L89.47-14.82Q89.88-16.23 91.93-17.81L91.93-17.81 92.75-18.46 93.46-19.1Q94.34-19.8 94.75-20.51L94.75-20.51 95.1-20.51 95.1-19.86Q95.1-17.05 95.57-15L95.57-15Q96.27-12.01 97.79-10.78L97.79-10.78 98.5-10.31 99.26-9.84Q100.31-9.2 100.84-8.85L100.84-8.85 101.43-8.85Q101.48-9.14 101.48-9.55L101.48-9.55 101.48-10.55 101.43-11.37Q102.13-11.25 103.48-10.43L103.48-10.43 104.65-9.96Q105.23-9.61 105.82-9.43L105.82-9.43Q106.58-9.26 107.29-9.26L107.29-9.26Q109.04-9.26 110.8-10.14L110.8-10.14Q111.56-10.43 112.79-11.31L112.79-11.31 113.73-11.78 114.61-12.36Q114.84-12.42 115.08-12.54L115.08-12.54 115.43-12.66Q115.84-12.77 116.13-12.95L116.13-12.95Q116.19-13.07 116.31-13.36L116.31-13.36Q115.37-13.77 113.73-14.12L113.73-14.12 112.32-14.53 110.92-14.82ZM79.69-34.69L79.69-34.69Q80.33-34.8 81.5-34.8L81.5-34.8 82.32-34.8 82.91-34.75 83.5-34.75Q84.14-34.75 84.49-34.8L84.49-34.8Q84.96-34.92 85.55-34.98L85.55-34.98 86.66-35.04Q88.01-35.21 88.77-35.51L88.77-35.51Q89.06-35.63 89.59-35.8L89.59-35.8 90.53-36.21Q91.64-36.8 92.17-37.03L92.17-37.03Q92.46-37.15 92.64-37.15L92.64-37.15 92.99-37.15Q93.28-37.15 93.63-37.32L93.63-37.32Q93.75-37.5 94.04-37.73L94.04-37.73 94.39-38.14Q94.34-40.02 92.46-41.37L92.46-41.37Q90.7-42.54 88.59-42.66L88.59-42.66Q88.3-42.42 87.48-42.42L87.48-42.42 86.95-42.36 86.25-42.25Q85.9-42.01 85.14-41.78L85.14-41.78 83.91-41.37Q82.5-40.84 81.74-40.78L81.74-40.78Q81.21-40.37 80.57-39.55L80.57-39.55 80.1-38.96 79.51-38.32 78.93-37.97 78.93-37.5Q78.63-37.09 77.87-36.56L77.87-36.56 77.23-36.09 76.76-35.63 76.35-35.27 76.05-34.75Q75.64-34.28 75.18-34.1L75.18-34.1 75.29-33.69Q76.23-33.87 77.52-34.22L77.52-34.22 78.63-34.45 79.69-34.69Z" transform="translate(-5.630000114440918, 42.65999984741211)"></path></g> <!----> <!----> <!----> <!----> <!----> <!----> <!----></g></g> <g data-gra="path-slogan" fill-rule="" class="tp-slogan" fill="#000000" transform="matrix(1,0,0,1,44.80400085449219,52.880001068115234)" opacity="1"><!----> <!----> <g transform="scale(1, 1)"><g transform="scale(1)"><path d="M5.62 0.54L5.62 0.54Q6.26 0.59 7.91 0.54Q9.56 0.49 9.92 0.41L9.92 0.41Q10.34 0.30 10.46 0.02Q10.58-0.27 10.28-0.45L10.28-0.45Q10.09-0.56 10.05-0.78Q10.01-1.01 9.99-2.09L9.99-2.09Q9.99-2.14 9.98-2.17Q9.97-2.20 9.95-2.21Q9.93-2.21 9.90-2.19L9.90-2.19Q9.85-2.14 9.76-1.75L9.76-1.75Q9.55-0.91 9.45-0.76L9.45-0.76Q9.29-0.49 8.79-0.45L8.79-0.45Q8.57-0.43 7.40-0.43L7.40-0.43Q6.09-0.43 5.85-0.46Q5.62-0.49 5.52-0.71L5.52-0.71Q5.49-0.78 5.48-2.86Q5.47-4.93 5.50-5.08L5.50-5.08Q5.55-5.31 6.01-5.49Q6.47-5.67 6.58-5.51L6.58-5.51Q6.64-5.44 6.63-4.31Q6.63-3.18 6.56-1.98L6.56-1.98Q6.53-1.36 6.62-1.24Q6.70-1.12 7.09-1.22L7.09-1.22Q7.47-1.33 7.55-1.47Q7.64-1.60 7.64-2.07L7.64-2.07Q7.63-2.72 7.72-2.75L7.72-2.75Q7.78-2.77 7.94-2.69L7.94-2.69Q8.27-2.48 8.27-2.04L8.27-2.04Q8.27-1.88 8.35-1.85Q8.43-1.83 8.69-1.88L8.69-1.88Q9.14-1.99 9.36-2.30Q9.57-2.62 9.67-3.34Q9.76-4.05 9.80-5.55L9.80-5.55Q9.81-6.10 9.85-6.26Q9.89-6.41 10.02-6.46L10.02-6.46Q10.36-6.56 9.85-7.04L9.85-7.04Q9.74-7.13 9.60-7.25L9.60-7.25Q9.37-7.46 9.30-7.45Q9.24-7.44 9.02-7.20L9.02-7.20Q8.82-6.95 8.71-6.88Q8.60-6.80 8.29-6.68L8.29-6.68Q7.79-6.48 7.70-6.51L7.70-6.51Q7.57-6.54 7.57-7.06L7.57-7.06Q7.57-7.07 7.57-7.54L7.57-7.54Q7.57-8.28 7.59-8.43Q7.62-8.58 7.73-8.70L7.73-8.70Q7.88-8.84 7.71-8.94L7.71-8.94Q7.61-8.99 7.32-9.08L7.32-9.08Q6.65-9.29 6.60-9.25L6.60-9.25Q6.55-9.23 6.57-9.03L6.57-9.03Q6.63-8.50 6.64-7.35Q6.65-6.21 6.60-6.12L6.60-6.12Q6.52-5.98 6.11-5.83L6.11-5.83Q5.63-5.64 5.55-5.76Q5.47-5.88 5.48-6.78L5.48-6.78Q5.49-7.44 5.52-7.59Q5.54-7.75 5.66-7.83L5.66-7.83Q5.89-7.97 5.33-8.17L5.33-8.17Q5.09-8.25 4.69-8.37L4.69-8.37Q4.51-8.41 4.48-8.40Q4.45-8.38 4.47-8.24L4.47-8.24Q4.53-7.81 4.53-6.59Q4.53-5.37 4.48-5.30L4.48-5.30Q4.39-5.18 3.76-4.93L3.76-4.93Q3.24-4.74 3.24-4.67L3.24-4.67Q3.23-4.64 3.29-4.58L3.29-4.58Q3.35-4.49 3.42-4.50Q3.49-4.50 3.85-4.63L3.85-4.63Q4.19-4.76 4.28-4.77Q4.37-4.79 4.43-4.76L4.43-4.76Q4.50-4.72 4.51-4.44Q4.52-4.16 4.53-2.47L4.53-2.47Q4.54-0.72 4.56-0.42Q4.58-0.12 4.66 0.06L4.66 0.06Q4.84 0.45 5.62 0.54ZM8.38-2.94L8.38-2.94Q8.29-2.92 8.12-2.92L8.12-2.92Q8.08-2.92 8.01-2.92L8.01-2.92Q7.72-2.92 7.66-3.02L7.66-3.02Q7.58-3.18 7.57-4.20L7.57-4.20Q7.57-4.40 7.57-4.52L7.57-4.52Q7.57-4.67 7.57-4.93L7.57-4.93Q7.57-5.79 7.63-5.95Q7.68-6.11 8.01-6.24L8.01-6.24Q8.11-6.28 8.19-6.31L8.19-6.31L8.21-6.32L8.23-6.33Q8.69-6.50 8.77-6.45L8.77-6.45Q8.85-6.36 8.85-5.79L8.85-5.79Q8.85-5.73 8.85-5.68L8.85-5.68Q8.83-4.15 8.74-3.58Q8.65-3.02 8.38-2.94ZM1.00-0.21L1.00-0.21Q1.07-0.12 1.20-0.37L1.20-0.37Q1.25-0.47 1.79-0.86L1.79-0.86Q2.58-1.41 3.41-2.05Q4.24-2.70 4.24-2.75L4.24-2.75Q4.24-2.78 4.22-2.79Q4.20-2.79 4.14-2.78Q4.07-2.76 3.96-2.72Q3.86-2.67 3.65-2.60L3.65-2.60Q3.05-2.34 2.96-2.34L2.96-2.34Q2.80-2.34 2.77-2.71L2.77-2.71Q2.76-2.84 2.76-3.95L2.76-3.95Q2.76-4.13 2.76-4.40L2.76-4.40Q2.75-5.34 2.84-5.48L2.84-5.48Q2.91-5.59 3.25-5.59L3.25-5.59Q3.28-5.59 3.31-5.59L3.31-5.59Q3.45-5.59 3.53-5.59L3.53-5.59Q4.21-5.59 4.29-5.69Q4.36-5.80 4.00-6.23L4.00-6.23Q3.65-6.64 3.53-6.66Q3.42-6.68 3.22-6.36L3.22-6.36Q2.96-5.90 2.83-6.04L2.83-6.04Q2.78-6.08 2.77-6.25Q2.76-6.42 2.76-7.23L2.76-7.23Q2.76-8.12 2.78-8.26Q2.80-8.39 2.94-8.51L2.94-8.51Q3.10-8.66 2.67-8.81L2.67-8.81Q2.44-8.89 1.93-9.02L1.93-9.02Q1.74-9.07 1.72-9.04Q1.70-9.01 1.73-8.74L1.73-8.74Q1.79-8.19 1.82-7.20Q1.85-6.22 1.80-6.09L1.80-6.09Q1.71-5.79 0.75-5.94L0.75-5.94Q0.61-5.96 0.60-5.92Q0.58-5.89 0.68-5.68Q0.77-5.48 0.81-5.47Q0.84-5.46 1.07-5.52L1.07-5.52Q1.61-5.66 1.77-5.45L1.77-5.45Q1.83-5.38 1.83-3.70Q1.83-2.02 1.77-1.93L1.77-1.93Q1.71-1.82 1.40-1.70Q1.08-1.58 0.81-1.49Q0.53-1.40 0.53-1.35L0.53-1.35Q0.53-1.32 0.75-0.79Q0.97-0.26 1.00-0.21ZM14.39 0.45L14.39 0.45Q14.47 0.60 14.50 0.63Q14.52 0.67 14.59 0.68Q14.66 0.70 14.77 0.66L14.77 0.66Q15.21 0.58 15.67 0.57Q16.13 0.56 18.48 0.55L18.48 0.55Q20.83 0.54 21.18 0.53Q21.54 0.52 21.59 0.43L21.59 0.43Q21.65 0.35 21.41 0.08Q21.18-0.19 20.84-0.46L20.84-0.46Q20.71-0.56 20.67-0.59Q20.64-0.61 20.56-0.59Q20.49-0.57 20.44-0.50Q20.40-0.43 20.26-0.24L20.26-0.24Q20.01 0.13 19.89 0.19Q19.78 0.25 19.28 0.25L19.28 0.25Q18.71 0.25 18.64 0.15Q18.57 0.04 18.57-0.75L18.57-0.75Q18.57-1.45 18.59-1.54L18.59-1.54Q18.66-1.72 19.01-1.74L19.01-1.74Q19.07-1.74 19.89-1.74L19.89-1.74Q21.04-1.74 21.14-1.83L21.14-1.83Q21.24-1.90 20.92-2.22L20.92-2.22Q20.88-2.26 20.82-2.32L20.82-2.32Q20.39-2.75 20.25-2.78Q20.11-2.81 19.91-2.50L19.91-2.50Q19.67-2.15 19.58-2.09Q19.49-2.04 19.12-2.04L19.12-2.04Q18.69-2.04 18.63-2.13Q18.57-2.22 18.57-2.89L18.57-2.89Q18.57-3.57 18.64-3.66Q18.71-3.76 19.24-3.76L19.24-3.76Q19.67-3.76 19.79-3.70Q19.91-3.63 19.91-3.42L19.91-3.42Q19.91-3.18 20.45-3.36L20.45-3.36Q20.82-3.48 20.89-3.60Q20.97-3.72 20.95-4.13L20.95-4.13Q20.88-5.65 20.88-7.09L20.88-7.09Q20.89-7.69 20.92-7.80Q20.94-7.92 21.05-7.99L21.05-7.99Q21.29-8.14 21.29-8.21L21.29-8.21Q21.29-8.28 20.98-8.56Q20.68-8.83 20.45-8.95L20.45-8.95Q20.35-9.00 20.28-8.97Q20.21-8.94 20.06-8.75L20.06-8.75Q20.03-8.73 20.00-8.69L20.00-8.69Q19.85-8.51 19.68-8.48L19.68-8.48Q19.49-8.44 18.39-8.44L18.39-8.44L18.08-8.44Q16.71-8.44 16.51-8.47Q16.31-8.50 15.83-8.71L15.83-8.71Q15.39-8.92 15.36-8.88L15.36-8.88Q15.33-8.87 15.34-8.67L15.34-8.67Q15.34-8.54 15.33-8.47Q15.32-8.40 15.30-8.35Q15.28-8.30 15.23-8.30Q15.19-8.30 15.12-8.34Q15.05-8.38 14.96-8.45Q14.87-8.53 14.73-8.65L14.73-8.65Q14.48-8.86 14.44-8.87Q14.39-8.87 14.29-8.72L14.29-8.72Q13.93-8.24 13.83-8.19Q13.72-8.13 13.07-8.13L13.07-8.13Q11.97-8.13 11.62-8.20L11.62-8.20Q11.55-8.22 11.56-8.14L11.56-8.14Q11.56-8.08 11.64-7.92L11.64-7.92Q11.73-7.73 11.77-7.70Q11.82-7.67 11.90-7.71L11.90-7.71Q12.22-7.82 12.48-7.81Q12.73-7.80 12.79-7.67L12.79-7.67Q12.84-7.57 12.83-6.42Q12.83-5.27 12.77-5.22L12.77-5.22Q12.70-5.12 12.48-5.11Q12.27-5.10 11.70-5.16L11.70-5.16Q11.58-5.18 11.58-5.13Q11.58-5.09 11.67-4.90L11.67-4.90Q11.75-4.73 11.79-4.69Q11.84-4.66 11.92-4.69L11.92-4.69Q12.21-4.80 12.47-4.79Q12.73-4.78 12.79-4.65L12.79-4.65Q12.84-4.57 12.83-3.23Q12.83-1.89 12.78-1.80L12.78-1.80Q12.74-1.70 12.57-1.63Q12.40-1.56 11.78-1.38L11.78-1.38Q11.56-1.31 11.54-1.26L11.54-1.26Q11.49-1.16 11.82-0.37L11.82-0.37Q11.87-0.23 11.89-0.16L11.89-0.16Q11.93-0.05 12.03-0.19L12.03-0.19Q12.21-0.43 12.68-0.71L12.68-0.71Q15.35-2.30 15.32-2.44L15.32-2.44Q15.31-2.49 15.22-2.47Q15.13-2.45 14.67-2.30L14.67-2.30Q14.07-2.09 13.98-2.11L13.98-2.11Q13.81-2.14 13.79-2.58L13.79-2.58Q13.79-2.67 13.79-3.43L13.79-3.43Q13.79-3.56 13.79-3.78L13.79-3.78Q13.78-4.54 13.86-4.67Q13.93-4.79 14.38-4.79L14.38-4.79Q14.52-4.79 14.61-4.79L14.61-4.79Q15.21-4.80 15.27-4.72Q15.33-4.63 15.28-3.81L15.28-3.81Q15.24-3.22 15.26-3.19L15.26-3.19Q15.35-2.95 15.83-3.08Q16.31-3.21 16.35-3.48L16.35-3.48Q16.37-3.67 16.47-3.72Q16.58-3.76 16.97-3.76L16.97-3.76Q17.45-3.76 17.52-3.66Q17.58-3.57 17.60-2.94L17.60-2.94Q17.61-2.21 17.51-2.12Q17.41-2.03 16.62-2.05L16.62-2.05Q16.18-2.05 15.58-2.09L15.58-2.09Q15.32-2.12 15.30-2.09Q15.29-2.06 15.38-1.85Q15.48-1.63 15.52-1.62Q15.55-1.60 15.77-1.63L15.77-1.63Q16.21-1.71 16.77-1.73Q17.34-1.76 17.42-1.71L17.42-1.71Q17.54-1.63 17.56-1.52Q17.58-1.41 17.58-0.75Q17.58-0.10 17.56 0.03Q17.54 0.15 17.43 0.20L17.43 0.20Q17.34 0.26 16.20 0.24Q15.07 0.23 14.51 0.17L14.51 0.17Q14.30 0.15 14.29 0.18Q14.28 0.21 14.39 0.45ZM17.43-4.08L17.43-4.08Q17.25-4.00 16.84-4.04Q16.44-4.09 16.39-4.20L16.39-4.20Q16.35-4.29 16.34-5.00Q16.34-5.71 16.38-5.80L16.38-5.80Q16.44-5.92 16.88-5.96Q17.32-5.99 17.47-5.89L17.47-5.89Q17.63-5.78 17.61-4.97Q17.60-4.17 17.43-4.08ZM19.74-4.08L19.74-4.08Q19.55-4.00 19.11-4.04Q18.67-4.08 18.62-4.20L18.62-4.20Q18.57-4.29 18.57-5.00Q18.56-5.71 18.61-5.80L18.61-5.80Q18.66-5.92 19.14-5.96Q19.63-5.99 19.78-5.89L19.78-5.89Q19.94-5.78 19.92-4.97Q19.91-4.17 19.74-4.08ZM15.31-5.32L15.31-5.32Q15.29-5.26 15.26-5.24Q15.23-5.22 15.18-5.24Q15.14-5.26 15.07-5.32Q15.00-5.38 14.88-5.51L14.88-5.51Q14.57-5.83 14.49-5.85Q14.41-5.87 14.25-5.62L14.25-5.62Q13.99-5.17 13.85-5.31L13.85-5.31Q13.80-5.35 13.79-6.47Q13.78-7.58 13.83-7.67L13.83-7.67Q13.91-7.85 14.59-7.84Q15.28-7.83 15.33-7.65L15.33-7.65Q15.36-7.53 15.35-6.47Q15.34-5.40 15.31-5.32ZM17.43-6.28L17.43-6.28Q17.36-6.25 16.97-6.25L16.97-6.25Q16.49-6.25 16.42-6.35Q16.35-6.46 16.35-7.21Q16.35-7.96 16.42-8.06Q16.49-8.15 16.99-8.14L16.99-8.14Q17.02-8.14 17.07-8.14L17.07-8.14Q17.46-8.13 17.52-8.05L17.52-8.05Q17.61-7.94 17.60-7.23L17.60-7.23Q17.60-7.17 17.60-7.13L17.60-7.13Q17.58-6.57 17.56-6.46Q17.54-6.34 17.43-6.28ZM19.74-6.28L19.74-6.28Q19.55-6.20 19.11-6.24Q18.67-6.28 18.62-6.40L18.62-6.40Q18.57-6.48 18.57-7.20Q18.56-7.92 18.61-7.99L18.61-7.99Q18.66-8.11 19.14-8.15Q19.63-8.19 19.78-8.09L19.78-8.09Q19.94-7.98 19.92-7.18Q19.91-6.37 19.74-6.28Z" transform="translate(-0.5263671875, 9.256184458732605)"></path></g></g></g></g></g></g><defs v-gra="od"></defs></svg>